<mxfile host="app.diagrams.net" modified="2023-07-16T06:00:40.422Z" agent="Mozilla/5.0 (Macintosh; Intel Mac OS X 10.15; rv:109.0) Gecko/20100101 Firefox/115.0" version="21.6.2" etag="ce4mxtGJ5AcQTf3eK8cU" type="github">
  <diagram name="第 1 页" id="0GmFkMgzQ_L441JELKV-">
    <mxGraphModel>
      <root>
        <mxCell id="0" />
        <mxCell id="1" parent="0" />
      </root>
    </mxGraphModel>
  </diagram>
</mxfile>
